# xmcd
#
# Track frame offsets: 
#        150
#        18126
#        44253
#        70063
#        86001
#        106533
#        128678
#        147356
#        168556
#        189863
#        210458
#
# Disc length: 3090 seconds
#
# Revision: 20
# Processed by: cddbd v1.5.2PL0 Copyright (c) Steve Scherf et al.
# Submitted via: ExactAudioCopy v1.0b1
#
DISCID=860c100b
DTITLE=Zucchero - bluesugar
DYEAR=1998
DGENRE=Blues
TTITLE0=U Make Me Feel Loved
TTITLE1=Blue
TTITLE2=Thin Air
TTITLE3=If Not Tonight
TTITLE4=Back 2 U
TTITLE5=Donkey Tonkey
TTITLE6=(Temporaneamente) X Sempre Tuo
TTITLE7=More Than This
TTITLE8=Karma, Stai Kalma (feat. Irene Fornaciari)
TTITLE9=I Wish You Love
TTITLE10=I Tempi Cambieranno
EXTD=YEAR: 1998
EXTT0=
EXTT1=
EXTT2=
EXTT3=
EXTT4=
EXTT5=
EXTT6=
EXTT7=
EXTT8=
EXTT9=
EXTT10=
PLAYORDER=
